<?xml version="1.0" encoding="UTF-8" standalone="no"?>
<!-- Created with Inkscape (http://www.inkscape.org/) -->

<svg
   xmlns:dc="http://purl.org/dc/elements/1.1/"
   xmlns:cc="http://creativecommons.org/ns#"
   xmlns:rdf="http://www.w3.org/1999/02/22-rdf-syntax-ns#"
   xmlns:svg="http://www.w3.org/2000/svg"
   xmlns="http://www.w3.org/2000/svg"
   xmlns:sodipodi="http://sodipodi.sourceforge.net/DTD/sodipodi-0.dtd"
   xmlns:inkscape="http://www.inkscape.org/namespaces/inkscape"
   id="svg2985"
   version="1.1"
   inkscape:version="0.48.5 r10040"
   width="761.2125"
   height="518.025"
   xml:space="preserve"
   sodipodi:docname="Logo.svg"
   inkscape:export-filename="C:\Users\EdmilsonS\Desktop\Documentos\Logo\bitmap.png"
   inkscape:export-xdpi="90"
   inkscape:export-ydpi="90"><metadata
     id="metadata2991"><rdf:RDF><cc:Work
         rdf:about=""><dc:format>image/svg+xml</dc:format><dc:type
           rdf:resource="http://purl.org/dc/dcmitype/StillImage" /><dc:title></dc:title></cc:Work></rdf:RDF></metadata><defs
     id="defs2989"><clipPath
       clipPathUnits="userSpaceOnUse"
       id="clipPath3001"><path
         d="M 3044.85,0 C 1363.23,0 0,203.449 0,454.43 0,705.41 1363.23,908.852 3044.85,908.852 4726.47,908.852 6089.69,705.41 6089.69,454.43 6089.69,203.449 4726.47,0 3044.85,0"
         id="path3003" /></clipPath><clipPath
       clipPathUnits="userSpaceOnUse"
       id="clipPath3013"><path
         d="m 0,0 6089.69,0 0,4144 L 0,4144 0,0 z"
         id="path3015" /></clipPath></defs><sodipodi:namedview
     pagecolor="#ffffff"
     bordercolor="#666666"
     borderopacity="1"
     objecttolerance="10"
     gridtolerance="10"
     guidetolerance="10"
     inkscape:pageopacity="0"
     inkscape:pageshadow="2"
     inkscape:window-width="1366"
     inkscape:window-height="705"
     id="namedview2987"
     showgrid="false"
     inkscape:zoom="0.99995169"
     inkscape:cx="200.02491"
     inkscape:cy="310.30956"
     inkscape:window-x="-8"
     inkscape:window-y="-8"
     inkscape:window-maximized="1"
     inkscape:current-layer="g3011" /><g
     id="g2993"
     inkscape:groupmode="layer"
     inkscape:label="ink_ext_XXXXXX"
     transform="matrix(1.25,0,0,-1.25,0,518.025)"><g
       id="g2995"
       transform="scale(0.1,0.1)"
       inkscape:export-xdpi="90"
       inkscape:export-ydpi="90"><g
         id="g3009"
         inkscape:export-xdpi="90"
         inkscape:export-ydpi="90"><g
           id="g3011"
           clip-path="url(#clipPath3013)"
           transform="translate(-16.000773,-264.01275)"><path
             d="m 2312.5528,3365.0558 c 69.7364,195.1839 275.5356,337.0296 517.9637,337.0296 113.6382,0 219.1975,-31.2171 306.5168,-84.4299 40.7541,37.5478 73.2276,74.4262 98.5245,108.6728 -114.4068,72.3711 -254.2223,114.9705 -405.0413,114.9705 -319.863,0 -590.3035,-191.6308 -673.5646,-452.4905 l 70.1987,-11.9923 c 28.5794,-4.879 57.0842,-8.7772 85.4022,-11.7602"
             style="fill:#0b96e9;fill-opacity:1;fill-rule:nonzero;stroke:none"
             id="path3053"
             inkscape:connector-curvature="0"
             inkscape:export-filename="C:\Users\EdmilsonS\Desktop\Documentos\Logo\bitmap.png"
             inkscape:export-xdpi="90"
             inkscape:export-ydpi="90" /><path
             d="m 3407.4215,3893.2322 c 1.5888,-55.1021 -31.5333,-136.2835 -96.5922,-221.9065 -27.356,-36.0033 -60.3962,-72.7756 -98.86,-108.7459 -456.053,-349.3929 -961.4687,-293.0512 -1074.3461,-254.8204 -4.6624,-28.9102 -7.102,-58.4498 -7.102,-88.5002 0,-69.5735 12.9877,-136.4889 36.8226,-199.009 85.5887,-5.9796 167.7385,1.2197 167.7309,1.233 397.0143,23.3215 772.1932,200.136 957.4625,451.4364 32.787,44.4624 59.6728,91.2315 79.6208,139.9165 36.1212,88.1353 49.7359,182.4559 35.2635,280.3961"
             style="fill:#459edd;fill-opacity:1;fill-rule:nonzero;stroke:none"
             id="path3055"
             inkscape:connector-curvature="0"
             inkscape:export-filename="C:\Users\EdmilsonS\Desktop\Documentos\Logo\bitmap.png"
             inkscape:export-xdpi="90"
             inkscape:export-ydpi="90" /><path
             d="m 2344.5415,2772.1184 c 231.5215,21.9625 637.4281,129.8731 950.6066,492.7234 32.7275,46.9216 59.3447,93.6378 79.9641,138.3453 9.3102,20.1791 17.3893,39.941 24.2899,59.1457 -17.4268,-26.4969 -36.7929,-52.5629 -58.2404,-78.1053 -15.6734,-18.6613 -32.3469,-37.0706 -50.1388,-55.1684 -211.8941,-215.463 -548.7735,-359.1647 -902.497,-390.0833 -45.5062,-3.9774 -91.2733,-6.1785 -137.1003,-6.3373 l -41.9402,-0.1393 c 35.1217,-59.822 80.9263,-113.9032 135.0561,-160.3808"
             style="fill:#7ecba3;fill-opacity:1;fill-rule:nonzero;stroke:none"
             id="path3057"
             inkscape:connector-curvature="0"
             inkscape:export-filename="C:\Users\EdmilsonS\Desktop\Documentos\Logo\bitmap.png"
             inkscape:export-xdpi="90"
             inkscape:export-ydpi="90" /><path
             d="m 3463.7519,3484.0899 c 2.6337,-44.2832 0.2239,-88.4669 -6.9303,-132.2529 -9.3099,-57.051 -26.6768,-113.406 -51.0562,-168.4352 -105.1191,-237.3194 -341.8028,-449.5538 -637.5102,-583.6431 20.5225,-1.6174 41.2688,-2.5389 62.2613,-2.5389 385.9811,0 699.995,279.0503 699.995,622.0394 0,94.6786 -24.0062,184.4317 -66.7596,264.8309"
             style="fill:#7efb3a;fill-opacity:1;fill-rule:nonzero;stroke:none"
             id="path3059"
             inkscape:connector-curvature="0"
             inkscape:export-xdpi="90"
             inkscape:export-ydpi="90"
             inkscape:export-filename="C:\Users\EdmilsonS\Desktop\Documentos\Logo\bitmap.png" /></g></g></g></g></svg>